<?xml version="1.0" encoding="UTF-8" standalone="no"?>
<!-- Created with Inkscape (http://www.inkscape.org/) -->

<svg
   xmlns:dc="http://purl.org/dc/elements/1.1/"
   xmlns:cc="http://creativecommons.org/ns#"
   xmlns:rdf="http://www.w3.org/1999/02/22-rdf-syntax-ns#"
   xmlns:svg="http://www.w3.org/2000/svg"
   xmlns="http://www.w3.org/2000/svg"
   xmlns:sodipodi="http://sodipodi.sourceforge.net/DTD/sodipodi-0.dtd"
   xmlns:inkscape="http://www.inkscape.org/namespaces/inkscape"
   width="800"
   height="200"
   viewBox="0 0 211.66666 52.916668"
   version="1.1"
   id="svg8"
   inkscape:version="0.92.4 (33fec40, 2019-01-16)"
   sodipodi:docname="logo.svg">
  <defs
     id="defs2" />
  <sodipodi:namedview
     id="base"
     pagecolor="#ffffff"
     bordercolor="#666666"
     borderopacity="1.0"
     inkscape:pageopacity="0.0"
     inkscape:pageshadow="2"
     inkscape:zoom="5.6"
     inkscape:cx="512.46765"
     inkscape:cy="124.13526"
     inkscape:document-units="px"
     inkscape:current-layer="flowRoot815"
     showgrid="false"
     units="px"
     inkscape:window-width="3840"
     inkscape:window-height="1963"
     inkscape:window-x="0"
     inkscape:window-y="55"
     inkscape:window-maximized="1" />
  <metadata
     id="metadata5">
    <rdf:RDF>
      <cc:Work
         rdf:about="">
        <dc:format>image/svg+xml</dc:format>
        <dc:type
           rdf:resource="http://purl.org/dc/dcmitype/StillImage" />
        <dc:title />
      </cc:Work>
    </rdf:RDF>
  </metadata>
  <g
     inkscape:label="Layer 1"
     inkscape:groupmode="layer"
     id="layer1"
     transform="translate(0,-244.08332)">
    <g
       aria-label="iter-over"
       transform="matrix(1.2424449,0,0,1.2424449,-86.330674,210.2829)"
       style="font-style:normal;font-weight:normal;font-size:40px;line-height:1.25;font-family:sans-serif;letter-spacing:0px;word-spacing:0px;fill:#000000;fill-opacity:1;stroke:none"
       id="flowRoot815">
      <path
         d="m 75.61588,37.945273 h -6.131372 v -5.579762 h 6.131372 z m -6.131372,2.758055 h 6.131372 v 23.125243 h -6.131372 z"
         style="font-style:normal;font-variant:normal;font-weight:bold;font-stretch:normal;font-family:Helvetica;-inkscape-font-specification:'Helvetica Bold';stroke-width:1.08624995"
         id="path823"
         inkscape:connector-curvature="0" />
      <path
         d="m 79.074059,45.222298 v -4.306811 h 3.224803 v -6.44961 h 5.982861 v 6.44961 h 3.755201 v 4.306811 H 88.281723 V 57.44261 q 0,1.421459 0.36067,1.782129 0.360668,0.339453 2.206445,0.339453 0.275805,0 0.572827,0 0.318237,-0.02121 0.615259,-0.04243 v 4.518969 l -2.864136,0.106083 q -4.285596,0.14851 -5.855566,-1.485107 -1.01836,-1.039576 -1.01836,-3.203589 V 45.2223 Z"
         style="font-style:normal;font-variant:normal;font-weight:bold;font-stretch:normal;font-family:Helvetica;-inkscape-font-specification:'Helvetica Bold';stroke-width:1.08624995"
         id="path825"
         inkscape:connector-curvature="0" />
      <path
         d="m 105.08465,45.073787 q -2.10037,0 -3.26724,1.31538 -1.14566,1.315382 -1.44266,3.564258 h 9.39859 q -0.14851,-2.397387 -1.46389,-3.627904 -1.29415,-1.251734 -3.2248,-1.251734 z m 0,-4.985718 q 2.88534,0 5.19787,1.082007 2.31253,1.082007 3.81886,3.415748 1.35781,2.057933 1.76091,4.773559 0.23337,1.591186 0.19094,4.582616 h -15.827 q 0.1273,3.479394 2.18523,4.879639 1.25173,0.869849 3.01264,0.869849 1.86699,0 3.03386,-1.060791 0.63648,-0.572827 1.12444,-1.591187 h 6.1738 q -0.23336,2.057934 -2.14279,4.179516 -2.97022,3.373315 -8.3166,3.373315 -4.41289,0 -7.786203,-2.84292 -3.373318,-2.842918 -3.373318,-9.250097 0,-6.004075 3.033864,-9.207664 3.055077,-3.20359 7.913497,-3.20359 z m 0.42432,0 z"
         style="font-style:normal;font-variant:normal;font-weight:bold;font-stretch:normal;font-family:Helvetica;-inkscape-font-specification:'Helvetica Bold';stroke-width:1.08624995"
         id="path827"
         inkscape:connector-curvature="0" />
      <path
         d="m 132.70764,40.151717 q 0.16973,0 0.27582,0.02121 0.12729,0 0.53039,0.02121 v 6.195018 q -0.57283,-0.06364 -1.01836,-0.08487 -0.44554,-0.02121 -0.72134,-0.02121 -3.64913,0 -4.90085,2.376172 -0.70012,1.336597 -0.70012,4.11587 v 11.053448 h -6.08894 V 40.703328 h 5.7707 v 4.031007 q 1.40024,-2.312524 2.43981,-3.161157 1.69727,-1.421461 4.41289,-1.421461 z"
         style="font-style:normal;font-variant:normal;font-weight:bold;font-stretch:normal;font-family:Helvetica;-inkscape-font-specification:'Helvetica Bold';stroke-width:1.08624995"
         id="path829"
         inkscape:connector-curvature="0" />
      <path
         d="m 135.21111,48.850203 h 12.17788 v 5.728271 h -12.17788 z"
         style="font-style:normal;font-variant:normal;font-weight:bold;font-stretch:normal;font-family:Helvetica;-inkscape-font-specification:'Helvetica Bold';stroke-width:1.08624995"
         id="path831"
         inkscape:connector-curvature="0" />
      <path
         d="m 161.92183,59.564192 q 2.65198,0 4.07343,-1.888208 1.42147,-1.888208 1.42147,-5.367603 0,-3.479394 -1.42147,-5.346386 -1.42145,-1.888208 -4.07343,-1.888208 -2.65197,0 -4.09466,1.888208 -1.42146,1.866992 -1.42146,5.346386 0,3.479395 1.42146,5.367603 1.44269,1.888208 4.09466,1.888208 z m 11.83843,-7.255811 q 0,5.091797 -2.92779,8.719702 -2.92777,3.606689 -8.88943,3.606689 -5.96164,0 -8.88943,-3.606689 -2.92777,-3.627905 -2.92777,-8.719702 0,-5.006933 2.92777,-8.67727 2.92779,-3.670335 8.88943,-3.670335 5.96166,0 8.88943,3.670335 2.92779,3.670337 2.92779,8.67727 z M 161.94304,40.088069 Z"
         style="font-style:normal;font-variant:normal;font-weight:bold;font-stretch:normal;font-family:Helvetica;-inkscape-font-specification:'Helvetica Bold';stroke-width:1.08624995"
         id="path833"
         inkscape:connector-curvature="0" />
      <path
         d="m 210.23945,33.326 0.40763,1.064769 c -13.19553,8.898426 -21.60939,29.475829 -21.60939,29.475829 h -6.38597 L 175.1989,40.741292 h 5.94649 l 4.816,17.057582 c 0,0 8.25702,-14.24964 18.36377,-21.348639 0.01,-0.0068 1.94605,-1.00595 1.95574,-1.012742 0,0 -4.09715,-1.154078 -3.89618,-1.177963 z"
         style="font-style:normal;font-variant:normal;font-weight:bold;font-stretch:normal;font-family:Helvetica;-inkscape-font-specification:'Helvetica Bold';stroke-width:1.08624995"
         id="path835"
         inkscape:connector-curvature="0"
         sodipodi:nodetypes="cccccccsssc" />
      <path
         d="m 211.41833,45.073787 q -2.10035,0 -3.26722,1.31538 -1.14566,1.315382 -1.44269,3.564258 h 9.39861 q -0.14851,-2.397387 -1.46389,-3.627904 -1.29417,-1.251734 -3.22481,-1.251734 z m 0,-4.985718 q 2.88535,0 5.19788,1.082007 2.31252,1.082007 3.81884,3.415748 1.35781,2.057933 1.76092,4.773559 0.23337,1.591186 0.19095,4.582616 h -15.82701 q 0.1273,3.479394 2.18523,4.879639 1.25174,0.869849 3.01265,0.869849 1.86699,0 3.03386,-1.060791 0.63648,-0.572827 1.12443,-1.591187 h 6.17381 q -0.23338,2.057934 -2.1428,4.179516 -2.9702,3.373315 -8.3166,3.373315 -4.41289,0 -7.7862,-2.84292 -3.37333,-2.842918 -3.37333,-9.250097 0,-6.004075 3.03388,-9.207664 3.05507,-3.20359 7.91349,-3.20359 z m 0.42432,0 z"
         style="font-style:normal;font-variant:normal;font-weight:bold;font-stretch:normal;font-family:Helvetica;-inkscape-font-specification:'Helvetica Bold';stroke-width:1.08624995"
         id="path837"
         inkscape:connector-curvature="0" />
      <path
         d="m 239.04133,40.151717 q 0.16973,0 0.27581,0.02121 0.1273,0 0.53039,0.02121 v 6.195018 q -0.57282,-0.06364 -1.01836,-0.08487 -0.44553,-0.02121 -0.72133,-0.02121 -3.64912,0 -4.90086,2.376172 -0.70012,1.336597 -0.70012,4.11587 v 11.053448 h -6.08895 V 40.703328 h 5.77071 v 4.031007 q 1.40025,-2.312524 2.43983,-3.161157 1.69726,-1.421461 4.41288,-1.421461 z"
         style="font-style:normal;font-variant:normal;font-weight:bold;font-stretch:normal;font-family:Helvetica;-inkscape-font-specification:'Helvetica Bold';stroke-width:1.08624995"
         id="path839"
         inkscape:connector-curvature="0" />
      <path
         d="m 229.59977,1.0240787 0.83351,0.681374 c -4.21959,1.224651 -10.61916,6.518729 -15.4924,12.6678303 -6.80379,8.585101 -11.66287,18.969082 -12.87355,19.717395 -1.21069,0.74831 -4.91455,1.935 -5.79811,1.49379 -0.88355,-0.44121 -7.77184,-17.350682 -7.89434,-18.306581 -0.12249,-0.955899 0.82713,-1.875934 2.69525,-1.898301 1.86813,-0.02236 8.11776,11.553205 8.11776,11.553205 0,0 14.1819,-22.0874773 30.41188,-25.9087123 z"
         style="font-style:normal;font-variant:normal;font-weight:bold;font-stretch:normal;font-size:40px;line-height:1.25;font-family:Helvetica;-inkscape-font-specification:'Helvetica Bold';letter-spacing:0px;word-spacing:0px;fill:#000000;fill-opacity:1;stroke:none;stroke-width:1.1736896"
         id="path835-3"
         inkscape:connector-curvature="0"
         sodipodi:nodetypes="ccszzzzcc" />
      <path
         d="m 159.18624,81.657844 h 6.49203 l -8.33781,23.125246 h -6.38597 l -7.45282,-23.125309 h 5.94649 l 4.816,17.057582 z"
         style="font-style:normal;font-variant:normal;font-weight:bold;font-stretch:normal;font-size:40px;line-height:1.25;font-family:Helvetica;-inkscape-font-specification:'Helvetica Bold';letter-spacing:0px;word-spacing:0px;fill:#000000;fill-opacity:1;stroke:none;stroke-width:1.08624995"
         id="path835-6"
         inkscape:connector-curvature="0"
         sodipodi:nodetypes="cccccccc" />
      <path
         d="m 227.19275,70.036194 0.83351,0.681374 c -4.21959,1.224651 -10.61916,6.518729 -15.49239,12.66783 -6.80379,8.585101 -11.66287,18.969082 -12.87355,19.717392 -1.21069,0.74831 -4.91455,1.935 -5.79811,1.49379 -0.88355,-0.44121 -7.77184,-17.350679 -7.89434,-18.306578 -0.12249,-0.955899 0.82713,-1.875934 2.69525,-1.898301 1.86813,-0.02236 8.11776,11.553205 8.11776,11.553205 0,0 14.1819,-22.087477 30.41187,-25.908712 z"
         style="font-style:normal;font-variant:normal;font-weight:bold;font-stretch:normal;font-size:40px;line-height:1.25;font-family:Helvetica;-inkscape-font-specification:'Helvetica Bold';letter-spacing:0px;word-spacing:0px;fill:#000000;fill-opacity:1;stroke:none;stroke-width:1.1736896"
         id="path835-3-7"
         inkscape:connector-curvature="0"
         sodipodi:nodetypes="ccszzzzcc" />
      <path
         d="m 175.96647,-25.282741 0.40763,1.064769 c -13.19553,8.898426 -21.60939,29.4758279 -21.60939,29.4758279 h -6.38597 l -7.45282,-23.1253049 h 5.94649 l 4.816,17.05758087 c 0,0 11.69097,-20.17576987 24.27806,-24.47287287 z"
         style="font-style:normal;font-variant:normal;font-weight:bold;font-stretch:normal;font-size:40px;line-height:1.25;font-family:Helvetica;-inkscape-font-specification:'Helvetica Bold';letter-spacing:0px;word-spacing:0px;fill:#000000;fill-opacity:1;stroke:none;stroke-width:1.08624995"
         id="path835-5"
         inkscape:connector-curvature="0"
         sodipodi:nodetypes="cccccccc" />
    </g>
  </g>
</svg>
